<mxfile host="Electron" agent="Mozilla/5.0 (Windows NT 10.0; Win64; x64) AppleWebKit/537.36 (KHTML, like Gecko) draw.io/24.7.17 Chrome/128.0.6613.36 Electron/32.0.1 Safari/537.36" version="24.7.17">
  <diagram id="C5RBs43oDa-KdzZeNtuy" name="Robot">
    <mxGraphModel dx="1938" dy="955" grid="1" gridSize="10" guides="1" tooltips="1" connect="1" arrows="1" fold="1" page="1" pageScale="1" pageWidth="1169" pageHeight="827" math="0" shadow="0">
      <root>
        <mxCell id="WIyWlLk6GJQsqaUBKTNV-0" />
        <mxCell id="WIyWlLk6GJQsqaUBKTNV-1" parent="WIyWlLk6GJQsqaUBKTNV-0" />
        <mxCell id="1XHSVb5vEpo4lb2-wSxZ-26" value="&lt;font style=&quot;font-size: 16px;&quot;&gt;Navigateur&lt;/font&gt;" style="swimlane;whiteSpace=wrap;html=1;rounded=0;labelBackgroundColor=none;fillColor=#FAE5C7;strokeColor=#0F8B8D;fontColor=#143642;" parent="WIyWlLk6GJQsqaUBKTNV-1" vertex="1">
          <mxGeometry x="520" y="159" width="220" height="510" as="geometry" />
        </mxCell>
        <mxCell id="zzUOd-PA_FNlv9D7fhNs-9" style="edgeStyle=orthogonalEdgeStyle;rounded=0;orthogonalLoop=1;jettySize=auto;html=1;exitX=0;exitY=0.5;exitDx=0;exitDy=0;entryX=1;entryY=0.5;entryDx=0;entryDy=0;startArrow=open;startFill=0;endArrow=none;endFill=0;dashed=1;dashPattern=8 8;" parent="1XHSVb5vEpo4lb2-wSxZ-26" target="zzUOd-PA_FNlv9D7fhNs-1" edge="1">
          <mxGeometry relative="1" as="geometry">
            <mxPoint x="175" y="335" as="sourcePoint" />
          </mxGeometry>
        </mxCell>
        <mxCell id="1XHSVb5vEpo4lb2-wSxZ-27" value="" style="ellipse;html=1;shape=startState;fillColor=#ff4d4d;strokeColor=#B20000;rounded=0;labelBackgroundColor=none;fontColor=#ffffff;" parent="1XHSVb5vEpo4lb2-wSxZ-26" vertex="1">
          <mxGeometry x="75" y="40" width="30" height="30" as="geometry" />
        </mxCell>
        <mxCell id="1XHSVb5vEpo4lb2-wSxZ-28" value="" style="edgeStyle=orthogonalEdgeStyle;html=1;verticalAlign=bottom;endArrow=open;endSize=8;strokeColor=#A8201A;rounded=0;labelBackgroundColor=none;fontColor=default;" parent="1XHSVb5vEpo4lb2-wSxZ-26" source="1XHSVb5vEpo4lb2-wSxZ-27" edge="1">
          <mxGeometry relative="1" as="geometry">
            <mxPoint x="90" y="140" as="targetPoint" />
          </mxGeometry>
        </mxCell>
        <mxCell id="1XHSVb5vEpo4lb2-wSxZ-29" value="Récupérer&lt;span style=&quot;background-color: initial;&quot;&gt;&amp;nbsp;les images de la caméra&lt;/span&gt;" style="rounded=0;whiteSpace=wrap;html=1;labelBackgroundColor=none;fillColor=#FAE5C7;strokeColor=#0F8B8D;fontColor=#143642;" parent="1XHSVb5vEpo4lb2-wSxZ-26" vertex="1">
          <mxGeometry x="30" y="110" width="120" height="60" as="geometry" />
        </mxCell>
        <mxCell id="zzUOd-PA_FNlv9D7fhNs-0" value="" style="edgeStyle=orthogonalEdgeStyle;rounded=0;orthogonalLoop=1;jettySize=auto;html=1;labelBackgroundColor=none;strokeColor=#A8201A;fontColor=default;exitX=0.5;exitY=1;exitDx=0;exitDy=0;entryX=0.5;entryY=0;entryDx=0;entryDy=0;" parent="1XHSVb5vEpo4lb2-wSxZ-26" source="zzUOd-PA_FNlv9D7fhNs-3" target="zzUOd-PA_FNlv9D7fhNs-1" edge="1">
          <mxGeometry relative="1" as="geometry">
            <mxPoint x="89.32999999999998" y="319" as="sourcePoint" />
            <mxPoint x="89.32999999999998" y="409" as="targetPoint" />
          </mxGeometry>
        </mxCell>
        <mxCell id="zzUOd-PA_FNlv9D7fhNs-1" value="Envoyer les positions des objets au serveur" style="rounded=0;whiteSpace=wrap;html=1;labelBackgroundColor=none;fillColor=#FAE5C7;strokeColor=#0F8B8D;fontColor=#143642;" parent="1XHSVb5vEpo4lb2-wSxZ-26" vertex="1">
          <mxGeometry x="30" y="305" width="120" height="60" as="geometry" />
        </mxCell>
        <mxCell id="zzUOd-PA_FNlv9D7fhNs-2" value="" style="edgeStyle=orthogonalEdgeStyle;rounded=0;orthogonalLoop=1;jettySize=auto;html=1;labelBackgroundColor=none;strokeColor=#A8201A;fontColor=default;exitX=0.5;exitY=1;exitDx=0;exitDy=0;entryX=0.5;entryY=0;entryDx=0;entryDy=0;" parent="1XHSVb5vEpo4lb2-wSxZ-26" source="1XHSVb5vEpo4lb2-wSxZ-29" target="zzUOd-PA_FNlv9D7fhNs-3" edge="1">
          <mxGeometry relative="1" as="geometry">
            <mxPoint x="30" y="190" as="sourcePoint" />
            <mxPoint x="89.32999999999998" y="260" as="targetPoint" />
          </mxGeometry>
        </mxCell>
        <mxCell id="zzUOd-PA_FNlv9D7fhNs-3" value="Dessiner les images de la caméra dans un canvas" style="rounded=0;whiteSpace=wrap;html=1;labelBackgroundColor=none;fillColor=#FAE5C7;strokeColor=#0F8B8D;fontColor=#143642;" parent="1XHSVb5vEpo4lb2-wSxZ-26" vertex="1">
          <mxGeometry x="30" y="210" width="120" height="60" as="geometry" />
        </mxCell>
        <mxCell id="1XHSVb5vEpo4lb2-wSxZ-17" value="&lt;font style=&quot;font-size: 16px;&quot;&gt;Serveur&lt;/font&gt;" style="swimlane;whiteSpace=wrap;html=1;rounded=0;labelBackgroundColor=none;fillColor=#FAE5C7;strokeColor=#0F8B8D;fontColor=#143642;" parent="WIyWlLk6GJQsqaUBKTNV-1" vertex="1">
          <mxGeometry x="740" y="159" width="270" height="510" as="geometry" />
        </mxCell>
        <mxCell id="1XHSVb5vEpo4lb2-wSxZ-18" value="" style="ellipse;html=1;shape=startState;fillColor=#ff4d4d;strokeColor=#B20000;rounded=0;labelBackgroundColor=none;fontColor=#ffffff;" parent="1XHSVb5vEpo4lb2-wSxZ-17" vertex="1">
          <mxGeometry x="120" y="30" width="30" height="30" as="geometry" />
        </mxCell>
        <mxCell id="1XHSVb5vEpo4lb2-wSxZ-19" value="" style="edgeStyle=orthogonalEdgeStyle;html=1;verticalAlign=bottom;endArrow=open;endSize=8;strokeColor=#A8201A;rounded=0;labelBackgroundColor=none;fontColor=default;entryX=0.5;entryY=0;entryDx=0;entryDy=0;" parent="1XHSVb5vEpo4lb2-wSxZ-17" source="1XHSVb5vEpo4lb2-wSxZ-18" edge="1" target="1XHSVb5vEpo4lb2-wSxZ-21">
          <mxGeometry relative="1" as="geometry">
            <mxPoint x="95" y="120" as="targetPoint" />
          </mxGeometry>
        </mxCell>
        <mxCell id="1XHSVb5vEpo4lb2-wSxZ-20" value="" style="edgeStyle=orthogonalEdgeStyle;rounded=0;orthogonalLoop=1;jettySize=auto;html=1;labelBackgroundColor=none;strokeColor=#A8201A;fontColor=default;" parent="1XHSVb5vEpo4lb2-wSxZ-17" source="1XHSVb5vEpo4lb2-wSxZ-21" target="1XHSVb5vEpo4lb2-wSxZ-23" edge="1">
          <mxGeometry relative="1" as="geometry" />
        </mxCell>
        <mxCell id="1XHSVb5vEpo4lb2-wSxZ-21" value="Lancer le serveur" style="rounded=0;whiteSpace=wrap;html=1;labelBackgroundColor=none;fillColor=#FAE5C7;strokeColor=#0F8B8D;fontColor=#143642;" parent="1XHSVb5vEpo4lb2-wSxZ-17" vertex="1">
          <mxGeometry x="75" y="90" width="120" height="60" as="geometry" />
        </mxCell>
        <mxCell id="1XHSVb5vEpo4lb2-wSxZ-22" value="" style="edgeStyle=orthogonalEdgeStyle;rounded=0;orthogonalLoop=1;jettySize=auto;html=1;labelBackgroundColor=none;strokeColor=#A8201A;fontColor=default;entryX=0.5;entryY=0;entryDx=0;entryDy=0;" parent="1XHSVb5vEpo4lb2-wSxZ-17" source="1XHSVb5vEpo4lb2-wSxZ-23" target="zzUOd-PA_FNlv9D7fhNs-4" edge="1">
          <mxGeometry relative="1" as="geometry">
            <mxPoint x="135" y="310" as="targetPoint" />
          </mxGeometry>
        </mxCell>
        <mxCell id="1XHSVb5vEpo4lb2-wSxZ-23" value="Lancer un scénario" style="whiteSpace=wrap;html=1;rounded=0;labelBackgroundColor=none;fillColor=#FAE5C7;strokeColor=#0F8B8D;fontColor=#143642;" parent="1XHSVb5vEpo4lb2-wSxZ-17" vertex="1">
          <mxGeometry x="75" y="190" width="120" height="60" as="geometry" />
        </mxCell>
        <mxCell id="1XHSVb5vEpo4lb2-wSxZ-24" value="Envoyer les ordres du scénario au robot" style="whiteSpace=wrap;html=1;rounded=0;labelBackgroundColor=none;fillColor=#FAE5C7;strokeColor=#0F8B8D;fontColor=#143642;" parent="1XHSVb5vEpo4lb2-wSxZ-17" vertex="1">
          <mxGeometry x="75" y="414" width="120" height="60" as="geometry" />
        </mxCell>
        <mxCell id="zzUOd-PA_FNlv9D7fhNs-4" value="Traiter les données reçues" style="whiteSpace=wrap;html=1;rounded=0;labelBackgroundColor=none;fillColor=#FAE5C7;strokeColor=#0F8B8D;fontColor=#143642;" parent="1XHSVb5vEpo4lb2-wSxZ-17" vertex="1">
          <mxGeometry x="75" y="305" width="120" height="60" as="geometry" />
        </mxCell>
        <mxCell id="zzUOd-PA_FNlv9D7fhNs-6" value="" style="edgeStyle=orthogonalEdgeStyle;rounded=0;orthogonalLoop=1;jettySize=auto;html=1;labelBackgroundColor=none;strokeColor=#A8201A;fontColor=default;entryX=0.5;entryY=0;entryDx=0;entryDy=0;exitX=0.5;exitY=1;exitDx=0;exitDy=0;" parent="1XHSVb5vEpo4lb2-wSxZ-17" source="zzUOd-PA_FNlv9D7fhNs-4" target="1XHSVb5vEpo4lb2-wSxZ-24" edge="1">
          <mxGeometry relative="1" as="geometry">
            <mxPoint x="135" y="380" as="sourcePoint" />
            <mxPoint x="145" y="320" as="targetPoint" />
          </mxGeometry>
        </mxCell>
        <mxCell id="zzUOd-PA_FNlv9D7fhNs-11" style="edgeStyle=orthogonalEdgeStyle;rounded=0;orthogonalLoop=1;jettySize=auto;html=1;exitX=0;exitY=0.5;exitDx=0;exitDy=0;entryX=1;entryY=0.5;entryDx=0;entryDy=0;startArrow=open;startFill=0;endArrow=none;endFill=0;dashed=1;dashPattern=8 8;" parent="1XHSVb5vEpo4lb2-wSxZ-17" target="1XHSVb5vEpo4lb2-wSxZ-24" edge="1">
          <mxGeometry relative="1" as="geometry">
            <mxPoint x="230" y="443.5" as="sourcePoint" />
            <mxPoint x="-170" y="345" as="targetPoint" />
          </mxGeometry>
        </mxCell>
        <mxCell id="1XHSVb5vEpo4lb2-wSxZ-25" value="Données" style="html=1;whiteSpace=wrap;rounded=0;labelBackgroundColor=none;fillColor=#FAE5C7;strokeColor=#0F8B8D;fontColor=#143642;" parent="1XHSVb5vEpo4lb2-wSxZ-17" vertex="1">
          <mxGeometry x="-40" y="310" width="80" height="50" as="geometry" />
        </mxCell>
        <mxCell id="1XHSVb5vEpo4lb2-wSxZ-0" value="&lt;font style=&quot;font-size: 16px;&quot;&gt;Robot&lt;/font&gt;" style="swimlane;whiteSpace=wrap;html=1;rounded=0;labelBackgroundColor=none;fillColor=#FAE5C7;strokeColor=#0F8B8D;fontColor=#143642;" parent="WIyWlLk6GJQsqaUBKTNV-1" vertex="1">
          <mxGeometry x="1010" y="159" width="800" height="510" as="geometry">
            <mxRectangle x="10" y="-30" width="80" height="30" as="alternateBounds" />
          </mxGeometry>
        </mxCell>
        <mxCell id="vtadBAOLPxlgFHZAJzr4-81" value="[Non]" style="text;html=1;align=center;verticalAlign=middle;whiteSpace=wrap;rounded=0;fontColor=#143642;labelBackgroundColor=none;" parent="1XHSVb5vEpo4lb2-wSxZ-0" vertex="1">
          <mxGeometry x="70" y="260" width="60" height="30" as="geometry" />
        </mxCell>
        <mxCell id="jgmxJTMwFsuUVpzggOw2-41" value="" style="ellipse;html=1;shape=startState;fillColor=#ff4d4d;strokeColor=#B20000;rounded=0;labelBackgroundColor=none;fontColor=#ffffff;" parent="1XHSVb5vEpo4lb2-wSxZ-0" vertex="1">
          <mxGeometry x="145" y="70" width="30" height="30" as="geometry" />
        </mxCell>
        <mxCell id="vtadBAOLPxlgFHZAJzr4-41" value="Connexion au réseau" style="rounded=0;whiteSpace=wrap;html=1;labelBackgroundColor=none;fillColor=#FAE5C7;strokeColor=#0F8B8D;fontColor=#143642;" parent="1XHSVb5vEpo4lb2-wSxZ-0" vertex="1">
          <mxGeometry x="100" y="160" width="120" height="60" as="geometry" />
        </mxCell>
        <mxCell id="jgmxJTMwFsuUVpzggOw2-42" value="" style="edgeStyle=orthogonalEdgeStyle;html=1;verticalAlign=bottom;endArrow=open;endSize=8;strokeColor=#A8201A;rounded=0;fontColor=default;fillColor=#FAE5C7;entryX=0.5;entryY=0;entryDx=0;entryDy=0;labelBackgroundColor=none;" parent="1XHSVb5vEpo4lb2-wSxZ-0" source="jgmxJTMwFsuUVpzggOw2-41" target="vtadBAOLPxlgFHZAJzr4-41" edge="1">
          <mxGeometry relative="1" as="geometry">
            <mxPoint x="90" y="479" as="targetPoint" />
          </mxGeometry>
        </mxCell>
        <mxCell id="vtadBAOLPxlgFHZAJzr4-64" value="Toujours connecté ?" style="rhombus;whiteSpace=wrap;html=1;labelBackgroundColor=none;fillColor=#FAE5C7;strokeColor=#0F8B8D;fontColor=#143642;rounded=0;" parent="1XHSVb5vEpo4lb2-wSxZ-0" vertex="1">
          <mxGeometry x="115" y="280" width="90" height="90" as="geometry" />
        </mxCell>
        <mxCell id="vtadBAOLPxlgFHZAJzr4-73" style="edgeStyle=orthogonalEdgeStyle;rounded=0;orthogonalLoop=1;jettySize=auto;html=1;exitX=0;exitY=0.5;exitDx=0;exitDy=0;entryX=0;entryY=0.5;entryDx=0;entryDy=0;strokeColor=#A8201A;fontColor=default;fillColor=#FAE5C7;labelBackgroundColor=none;" parent="1XHSVb5vEpo4lb2-wSxZ-0" source="vtadBAOLPxlgFHZAJzr4-64" target="vtadBAOLPxlgFHZAJzr4-41" edge="1">
          <mxGeometry relative="1" as="geometry" />
        </mxCell>
        <mxCell id="ZuUFUjK_gKErDMcywZkP-1" style="edgeStyle=orthogonalEdgeStyle;rounded=0;orthogonalLoop=1;jettySize=auto;html=1;exitX=0.5;exitY=1;exitDx=0;exitDy=0;entryX=0.5;entryY=0;entryDx=0;entryDy=0;strokeColor=#A8201A;fontColor=default;fillColor=#FAE5C7;endArrow=block;endFill=1;labelBackgroundColor=none;" edge="1" parent="1XHSVb5vEpo4lb2-wSxZ-0" source="vtadBAOLPxlgFHZAJzr4-41" target="vtadBAOLPxlgFHZAJzr4-64">
          <mxGeometry relative="1" as="geometry">
            <mxPoint x="220" y="445" as="sourcePoint" />
            <mxPoint x="410" y="499" as="targetPoint" />
          </mxGeometry>
        </mxCell>
        <mxCell id="vtadBAOLPxlgFHZAJzr4-70" style="edgeStyle=orthogonalEdgeStyle;rounded=0;orthogonalLoop=1;jettySize=auto;html=1;exitX=0;exitY=1;exitDx=0;exitDy=0;strokeColor=#A8201A;fontColor=default;fillColor=#FAE5C7;endArrow=block;endFill=1;labelBackgroundColor=none;entryX=0;entryY=0;entryDx=0;entryDy=0;" parent="1XHSVb5vEpo4lb2-wSxZ-0" source="vtadBAOLPxlgFHZAJzr4-64" target="ZuUFUjK_gKErDMcywZkP-8" edge="1">
          <mxGeometry relative="1" as="geometry">
            <mxPoint x="140" y="469" as="targetPoint" />
          </mxGeometry>
        </mxCell>
        <mxCell id="vtadBAOLPxlgFHZAJzr4-80" value="[Oui]" style="text;html=1;align=center;verticalAlign=middle;whiteSpace=wrap;rounded=0;fontColor=#143642;labelBackgroundColor=none;" parent="1XHSVb5vEpo4lb2-wSxZ-0" vertex="1">
          <mxGeometry x="100" y="370" width="40" height="30" as="geometry" />
        </mxCell>
        <mxCell id="vtadBAOLPxlgFHZAJzr4-77" value="[Oui]" style="text;html=1;align=center;verticalAlign=middle;whiteSpace=wrap;rounded=0;fontColor=#143642;labelBackgroundColor=none;" parent="1XHSVb5vEpo4lb2-wSxZ-0" vertex="1">
          <mxGeometry x="205" y="426" width="40" height="21" as="geometry" />
        </mxCell>
        <mxCell id="ZuUFUjK_gKErDMcywZkP-5" style="edgeStyle=orthogonalEdgeStyle;rounded=0;orthogonalLoop=1;jettySize=auto;html=1;exitX=1;exitY=0;exitDx=0;exitDy=0;strokeColor=#A8201A;fontColor=default;fillColor=#FAE5C7;endArrow=block;endFill=1;labelBackgroundColor=none;entryX=1;entryY=1;entryDx=0;entryDy=0;" edge="1" parent="1XHSVb5vEpo4lb2-wSxZ-0" source="ZuUFUjK_gKErDMcywZkP-8" target="vtadBAOLPxlgFHZAJzr4-64">
          <mxGeometry relative="1" as="geometry">
            <mxPoint x="180" y="469" as="sourcePoint" />
            <mxPoint x="170" y="459" as="targetPoint" />
          </mxGeometry>
        </mxCell>
        <mxCell id="ZuUFUjK_gKErDMcywZkP-7" value="[Non]" style="text;html=1;align=center;verticalAlign=middle;whiteSpace=wrap;rounded=0;fontColor=#143642;labelBackgroundColor=none;" vertex="1" parent="1XHSVb5vEpo4lb2-wSxZ-0">
          <mxGeometry x="175" y="389" width="60" height="30" as="geometry" />
        </mxCell>
        <mxCell id="ZuUFUjK_gKErDMcywZkP-8" value="Ordre reçu ?" style="rhombus;whiteSpace=wrap;html=1;labelBackgroundColor=none;fillColor=#FAE5C7;strokeColor=#0F8B8D;fontColor=#143642;rounded=0;" vertex="1" parent="1XHSVb5vEpo4lb2-wSxZ-0">
          <mxGeometry x="115" y="404" width="90" height="90" as="geometry" />
        </mxCell>
        <mxCell id="vtadBAOLPxlgFHZAJzr4-27" style="edgeStyle=orthogonalEdgeStyle;rounded=0;orthogonalLoop=1;jettySize=auto;html=1;exitX=0;exitY=0.5;exitDx=0;exitDy=0;endArrow=block;endFill=1;strokeColor=#A8201A;labelBackgroundColor=none;fontColor=default;entryX=1;entryY=0.5;entryDx=0;entryDy=0;" parent="1XHSVb5vEpo4lb2-wSxZ-0" source="vtadBAOLPxlgFHZAJzr4-20" target="vtadBAOLPxlgFHZAJzr4-64" edge="1">
          <mxGeometry relative="1" as="geometry">
            <mxPoint x="330" y="400" as="targetPoint" />
          </mxGeometry>
        </mxCell>
        <mxCell id="vtadBAOLPxlgFHZAJzr4-21" value="" style="edgeStyle=orthogonalEdgeStyle;rounded=0;orthogonalLoop=1;jettySize=auto;html=1;endArrow=block;endFill=1;strokeColor=#A8201A;labelBackgroundColor=none;fontColor=default;" parent="1XHSVb5vEpo4lb2-wSxZ-0" target="vtadBAOLPxlgFHZAJzr4-20" edge="1" source="vtadBAOLPxlgFHZAJzr4-69">
          <mxGeometry relative="1" as="geometry">
            <mxPoint x="360" y="450.75" as="sourcePoint" />
          </mxGeometry>
        </mxCell>
        <mxCell id="vtadBAOLPxlgFHZAJzr4-33" style="edgeStyle=orthogonalEdgeStyle;rounded=0;orthogonalLoop=1;jettySize=auto;html=1;exitX=0.5;exitY=0;exitDx=0;exitDy=0;entryX=0.5;entryY=1;entryDx=0;entryDy=0;endArrow=block;endFill=1;labelBackgroundColor=none;strokeColor=#A8201A;fontColor=default;" parent="1XHSVb5vEpo4lb2-wSxZ-0" source="vtadBAOLPxlgFHZAJzr4-18" target="vtadBAOLPxlgFHZAJzr4-49" edge="1">
          <mxGeometry relative="1" as="geometry">
            <mxPoint x="650" y="378.5" as="targetPoint" />
          </mxGeometry>
        </mxCell>
        <mxCell id="vtadBAOLPxlgFHZAJzr4-18" value="Déduire le sens dans lequel le moteur gauche tourne" style="rounded=0;whiteSpace=wrap;html=1;labelBackgroundColor=none;fillColor=#FAE5C7;strokeColor=#0F8B8D;fontColor=#143642;" parent="1XHSVb5vEpo4lb2-wSxZ-0" vertex="1">
          <mxGeometry x="450" y="299.5" width="120" height="60" as="geometry" />
        </mxCell>
        <mxCell id="vtadBAOLPxlgFHZAJzr4-22" value="[Oui&lt;span style=&quot;background-color: initial;&quot;&gt;]&lt;/span&gt;" style="text;html=1;align=center;verticalAlign=middle;whiteSpace=wrap;rounded=0;labelBackgroundColor=none;fontColor=#143642;" parent="1XHSVb5vEpo4lb2-wSxZ-0" vertex="1">
          <mxGeometry x="360" y="369" width="40" height="20" as="geometry" />
        </mxCell>
        <mxCell id="vtadBAOLPxlgFHZAJzr4-23" value="[Non&lt;span style=&quot;background-color: initial;&quot;&gt;]&lt;/span&gt;" style="text;html=1;align=center;verticalAlign=middle;whiteSpace=wrap;rounded=0;labelBackgroundColor=none;fontColor=#143642;" parent="1XHSVb5vEpo4lb2-wSxZ-0" vertex="1">
          <mxGeometry x="420" y="427" width="50" height="20" as="geometry" />
        </mxCell>
        <mxCell id="vtadBAOLPxlgFHZAJzr4-53" value="" style="edgeStyle=orthogonalEdgeStyle;rounded=0;orthogonalLoop=1;jettySize=auto;html=1;strokeColor=#A8201A;fontColor=default;fillColor=#FAE5C7;endArrow=block;endFill=1;labelBackgroundColor=none;" parent="1XHSVb5vEpo4lb2-wSxZ-0" source="vtadBAOLPxlgFHZAJzr4-49" target="vtadBAOLPxlgFHZAJzr4-52" edge="1">
          <mxGeometry relative="1" as="geometry" />
        </mxCell>
        <mxCell id="vtadBAOLPxlgFHZAJzr4-49" value="Déduire la vitesse à laquelle le moteur gauche tourne" style="rounded=0;whiteSpace=wrap;html=1;labelBackgroundColor=none;fillColor=#FAE5C7;strokeColor=#0F8B8D;fontColor=#143642;" parent="1XHSVb5vEpo4lb2-wSxZ-0" vertex="1">
          <mxGeometry x="450" y="209.5" width="120" height="60" as="geometry" />
        </mxCell>
        <mxCell id="vtadBAOLPxlgFHZAJzr4-52" value="Déduire la durée pendant laquelle le moteur gauche tourne" style="whiteSpace=wrap;html=1;fillColor=#FAE5C7;strokeColor=#0F8B8D;fontColor=#143642;rounded=0;labelBackgroundColor=none;" parent="1XHSVb5vEpo4lb2-wSxZ-0" vertex="1">
          <mxGeometry x="450" y="119.5" width="120" height="60" as="geometry" />
        </mxCell>
        <mxCell id="jgmxJTMwFsuUVpzggOw2-6" value="Exécuter l&#39;ordre" style="rounded=0;whiteSpace=wrap;html=1;labelBackgroundColor=none;fillColor=#FAE5C7;strokeColor=#0F8B8D;fontColor=#143642;" parent="1XHSVb5vEpo4lb2-wSxZ-0" vertex="1">
          <mxGeometry x="290" y="41.75" width="120" height="60" as="geometry" />
        </mxCell>
        <mxCell id="jgmxJTMwFsuUVpzggOw2-14" style="edgeStyle=orthogonalEdgeStyle;rounded=0;orthogonalLoop=1;jettySize=auto;html=1;exitX=0.5;exitY=0;exitDx=0;exitDy=0;entryX=0.5;entryY=1;entryDx=0;entryDy=0;endArrow=block;endFill=1;labelBackgroundColor=none;strokeColor=#A8201A;fontColor=default;" parent="1XHSVb5vEpo4lb2-wSxZ-0" source="jgmxJTMwFsuUVpzggOw2-15" target="jgmxJTMwFsuUVpzggOw2-17" edge="1">
          <mxGeometry relative="1" as="geometry">
            <mxPoint x="820" y="378" as="targetPoint" />
          </mxGeometry>
        </mxCell>
        <mxCell id="jgmxJTMwFsuUVpzggOw2-15" value="Déduire le sens dans lequel le moteur droit tourne" style="rounded=0;whiteSpace=wrap;html=1;labelBackgroundColor=none;fillColor=#FAE5C7;strokeColor=#0F8B8D;fontColor=#143642;" parent="1XHSVb5vEpo4lb2-wSxZ-0" vertex="1">
          <mxGeometry x="620" y="299" width="120" height="60" as="geometry" />
        </mxCell>
        <mxCell id="jgmxJTMwFsuUVpzggOw2-16" value="" style="edgeStyle=orthogonalEdgeStyle;rounded=0;orthogonalLoop=1;jettySize=auto;html=1;strokeColor=#A8201A;fontColor=default;fillColor=#FAE5C7;endArrow=block;endFill=1;labelBackgroundColor=none;" parent="1XHSVb5vEpo4lb2-wSxZ-0" source="jgmxJTMwFsuUVpzggOw2-17" target="jgmxJTMwFsuUVpzggOw2-18" edge="1">
          <mxGeometry relative="1" as="geometry" />
        </mxCell>
        <mxCell id="jgmxJTMwFsuUVpzggOw2-17" value="Déduire la vitesse à laquelle le moteur droit tourne" style="rounded=0;whiteSpace=wrap;html=1;labelBackgroundColor=none;fillColor=#FAE5C7;strokeColor=#0F8B8D;fontColor=#143642;" parent="1XHSVb5vEpo4lb2-wSxZ-0" vertex="1">
          <mxGeometry x="620" y="209" width="120" height="60" as="geometry" />
        </mxCell>
        <mxCell id="jgmxJTMwFsuUVpzggOw2-18" value="Déduire la durée pendant laquelle le moteur droit tourne" style="whiteSpace=wrap;html=1;fillColor=#FAE5C7;strokeColor=#0F8B8D;fontColor=#143642;rounded=0;labelBackgroundColor=none;" parent="1XHSVb5vEpo4lb2-wSxZ-0" vertex="1">
          <mxGeometry x="620" y="119" width="120" height="60" as="geometry" />
        </mxCell>
        <mxCell id="jgmxJTMwFsuUVpzggOw2-23" style="edgeStyle=orthogonalEdgeStyle;rounded=0;orthogonalLoop=1;jettySize=auto;html=1;curved=0;exitX=0;exitY=0;exitDx=0;exitDy=5;exitPerimeter=0;entryX=0.5;entryY=1;entryDx=0;entryDy=0;endArrow=block;endFill=1;labelBackgroundColor=none;strokeColor=#A8201A;fontColor=default;" parent="1XHSVb5vEpo4lb2-wSxZ-0" target="jgmxJTMwFsuUVpzggOw2-15" edge="1">
          <mxGeometry relative="1" as="geometry">
            <mxPoint x="685.8749999999995" y="397.375" as="sourcePoint" />
          </mxGeometry>
        </mxCell>
        <mxCell id="jgmxJTMwFsuUVpzggOw2-32" style="edgeStyle=orthogonalEdgeStyle;rounded=0;orthogonalLoop=1;jettySize=auto;html=1;curved=0;exitX=0;exitY=1;exitDx=0;exitDy=-5;exitPerimeter=0;entryX=0.5;entryY=1;entryDx=0;entryDy=0;strokeColor=#A8201A;fontColor=default;fillColor=#FAE5C7;endArrow=block;endFill=1;labelBackgroundColor=none;" parent="1XHSVb5vEpo4lb2-wSxZ-0" target="vtadBAOLPxlgFHZAJzr4-18" edge="1">
          <mxGeometry relative="1" as="geometry">
            <mxPoint x="509.1249999999998" y="397.375" as="sourcePoint" />
          </mxGeometry>
        </mxCell>
        <mxCell id="jgmxJTMwFsuUVpzggOw2-20" style="edgeStyle=orthogonalEdgeStyle;rounded=0;orthogonalLoop=1;jettySize=auto;html=1;exitX=1;exitY=0.5;exitDx=0;exitDy=0;endArrow=block;endFill=1;labelBackgroundColor=none;strokeColor=#A8201A;fontColor=default;" parent="1XHSVb5vEpo4lb2-wSxZ-0" source="vtadBAOLPxlgFHZAJzr4-69" edge="1">
          <mxGeometry relative="1" as="geometry">
            <mxPoint x="600" y="410" as="targetPoint" />
            <Array as="points">
              <mxPoint x="600" y="449" />
            </Array>
          </mxGeometry>
        </mxCell>
        <mxCell id="jgmxJTMwFsuUVpzggOw2-24" value="" style="html=1;points=[[0,0,0,0,5],[0,1,0,0,-5],[1,0,0,0,5],[1,1,0,0,-5]];perimeter=orthogonalPerimeter;outlineConnect=0;targetShapes=umlLifeline;portConstraint=eastwest;newEdgeStyle={&quot;curved&quot;:0,&quot;rounded&quot;:0};rotation=90;labelBackgroundColor=none;fillColor=#FAE5C7;strokeColor=#0F8B8D;fontColor=#143642;rounded=0;" parent="1XHSVb5vEpo4lb2-wSxZ-0" vertex="1">
          <mxGeometry x="592.5" y="-13.5" width="10" height="185" as="geometry" />
        </mxCell>
        <mxCell id="jgmxJTMwFsuUVpzggOw2-25" style="edgeStyle=orthogonalEdgeStyle;rounded=0;orthogonalLoop=1;jettySize=auto;html=1;exitX=0.5;exitY=0;exitDx=0;exitDy=0;entryX=1;entryY=1;entryDx=0;entryDy=-5;entryPerimeter=0;endArrow=block;endFill=1;labelBackgroundColor=none;strokeColor=#A8201A;fontColor=default;" parent="1XHSVb5vEpo4lb2-wSxZ-0" source="vtadBAOLPxlgFHZAJzr4-52" target="jgmxJTMwFsuUVpzggOw2-24" edge="1">
          <mxGeometry relative="1" as="geometry" />
        </mxCell>
        <mxCell id="jgmxJTMwFsuUVpzggOw2-26" style="edgeStyle=orthogonalEdgeStyle;rounded=0;orthogonalLoop=1;jettySize=auto;html=1;exitX=0.538;exitY=-0.005;exitDx=0;exitDy=0;entryX=1;entryY=0;entryDx=0;entryDy=5;entryPerimeter=0;endArrow=block;endFill=1;exitPerimeter=0;labelBackgroundColor=none;strokeColor=#A8201A;fontColor=default;" parent="1XHSVb5vEpo4lb2-wSxZ-0" source="jgmxJTMwFsuUVpzggOw2-18" target="jgmxJTMwFsuUVpzggOw2-24" edge="1">
          <mxGeometry relative="1" as="geometry" />
        </mxCell>
        <mxCell id="jgmxJTMwFsuUVpzggOw2-31" value="" style="edgeStyle=orthogonalEdgeStyle;rounded=0;orthogonalLoop=1;jettySize=auto;html=1;strokeColor=#A8201A;fontColor=default;fillColor=#FAE5C7;endArrow=block;endFill=1;entryX=1;entryY=0.25;entryDx=0;entryDy=0;labelBackgroundColor=none;" parent="1XHSVb5vEpo4lb2-wSxZ-0" source="jgmxJTMwFsuUVpzggOw2-24" target="jgmxJTMwFsuUVpzggOw2-6" edge="1">
          <mxGeometry relative="1" as="geometry">
            <mxPoint x="650" y="91.75" as="sourcePoint" />
            <mxPoint x="560" y="212.75" as="targetPoint" />
            <Array as="points">
              <mxPoint x="650" y="57" />
            </Array>
          </mxGeometry>
        </mxCell>
        <mxCell id="jgmxJTMwFsuUVpzggOw2-43" value="" style="html=1;points=[[0,0,0,0,5],[0,1,0,0,-5],[1,0,0,0,5],[1,1,0,0,-5]];perimeter=orthogonalPerimeter;outlineConnect=0;targetShapes=umlLifeline;portConstraint=eastwest;newEdgeStyle={&quot;curved&quot;:0,&quot;rounded&quot;:0};rotation=90;labelBackgroundColor=none;fillColor=#FAE5C7;strokeColor=#0F8B8D;fontColor=#143642;rounded=0;" parent="1XHSVb5vEpo4lb2-wSxZ-0" vertex="1">
          <mxGeometry x="592.5" y="309" width="10" height="185" as="geometry" />
        </mxCell>
        <mxCell id="vtadBAOLPxlgFHZAJzr4-71" style="edgeStyle=orthogonalEdgeStyle;rounded=0;orthogonalLoop=1;jettySize=auto;html=1;exitX=1;exitY=0.5;exitDx=0;exitDy=0;entryX=0;entryY=0.5;entryDx=0;entryDy=0;strokeColor=#A8201A;fontColor=default;fillColor=#FAE5C7;endArrow=block;endFill=1;labelBackgroundColor=none;" parent="1XHSVb5vEpo4lb2-wSxZ-0" source="ZuUFUjK_gKErDMcywZkP-8" target="vtadBAOLPxlgFHZAJzr4-69" edge="1">
          <mxGeometry relative="1" as="geometry">
            <mxPoint x="200" y="489" as="sourcePoint" />
          </mxGeometry>
        </mxCell>
        <mxCell id="vtadBAOLPxlgFHZAJzr4-20" value="Ne pas l&#39;éxécuter" style="rounded=0;whiteSpace=wrap;html=1;labelBackgroundColor=none;fillColor=#FAE5C7;strokeColor=#0F8B8D;fontColor=#143642;" parent="1XHSVb5vEpo4lb2-wSxZ-0" vertex="1">
          <mxGeometry x="300" y="295" width="120" height="60" as="geometry" />
        </mxCell>
        <mxCell id="jgmxJTMwFsuUVpzggOw2-3" value="" style="edgeStyle=orthogonalEdgeStyle;rounded=0;orthogonalLoop=1;jettySize=auto;html=1;endArrow=block;endFill=1;strokeColor=#A8201A;labelBackgroundColor=none;fontColor=default;exitX=0;exitY=0.5;exitDx=0;exitDy=0;entryX=1;entryY=0.5;entryDx=0;entryDy=0;" parent="1XHSVb5vEpo4lb2-wSxZ-0" source="jgmxJTMwFsuUVpzggOw2-6" target="vtadBAOLPxlgFHZAJzr4-64" edge="1">
          <mxGeometry relative="1" as="geometry">
            <mxPoint x="500" y="220" as="sourcePoint" />
            <mxPoint x="330" y="400" as="targetPoint" />
          </mxGeometry>
        </mxCell>
        <mxCell id="ZuUFUjK_gKErDMcywZkP-12" value="" style="edgeStyle=orthogonalEdgeStyle;rounded=0;orthogonalLoop=1;jettySize=auto;html=1;endArrow=block;endFill=1;strokeColor=#A8201A;labelBackgroundColor=none;fontColor=default;" edge="1" parent="1XHSVb5vEpo4lb2-wSxZ-0" target="vtadBAOLPxlgFHZAJzr4-69">
          <mxGeometry relative="1" as="geometry">
            <mxPoint x="370" y="420.75" as="sourcePoint" />
            <mxPoint x="370" y="325" as="targetPoint" />
          </mxGeometry>
        </mxCell>
        <mxCell id="vtadBAOLPxlgFHZAJzr4-69" value="Reçu trop tard ?" style="rhombus;whiteSpace=wrap;html=1;labelBackgroundColor=none;fillColor=#FAE5C7;strokeColor=#0F8B8D;fontColor=#143642;rounded=0;" parent="1XHSVb5vEpo4lb2-wSxZ-0" vertex="1">
          <mxGeometry x="310" y="399" width="100" height="100" as="geometry" />
        </mxCell>
        <mxCell id="1XHSVb5vEpo4lb2-wSxZ-11" value="Ordres" style="html=1;whiteSpace=wrap;rounded=0;labelBackgroundColor=none;fillColor=#FAE5C7;strokeColor=#0F8B8D;fontColor=#143642;" parent="WIyWlLk6GJQsqaUBKTNV-1" vertex="1">
          <mxGeometry x="970" y="585.5" width="80" height="45" as="geometry" />
        </mxCell>
        <mxCell id="ZuUFUjK_gKErDMcywZkP-2" style="edgeStyle=orthogonalEdgeStyle;rounded=0;orthogonalLoop=1;jettySize=auto;html=1;entryX=1;entryY=0.5;entryDx=0;entryDy=0;startArrow=open;startFill=0;endArrow=none;endFill=0;dashed=1;dashPattern=8 8;exitX=0;exitY=0.5;exitDx=0;exitDy=0;" edge="1" parent="WIyWlLk6GJQsqaUBKTNV-1" source="ZuUFUjK_gKErDMcywZkP-8" target="1XHSVb5vEpo4lb2-wSxZ-11">
          <mxGeometry relative="1" as="geometry">
            <mxPoint x="1170" y="659" as="sourcePoint" />
            <mxPoint x="930" y="613" as="targetPoint" />
          </mxGeometry>
        </mxCell>
        <mxCell id="ZuUFUjK_gKErDMcywZkP-13" style="edgeStyle=orthogonalEdgeStyle;rounded=0;orthogonalLoop=1;jettySize=auto;html=1;exitX=0;exitY=0.5;exitDx=0;exitDy=0;startArrow=open;startFill=0;endArrow=none;endFill=0;dashed=1;dashPattern=8 8;" edge="1" parent="WIyWlLk6GJQsqaUBKTNV-1" source="zzUOd-PA_FNlv9D7fhNs-4">
          <mxGeometry relative="1" as="geometry">
            <mxPoint x="705" y="504" as="sourcePoint" />
            <mxPoint x="780" y="494" as="targetPoint" />
          </mxGeometry>
        </mxCell>
      </root>
    </mxGraphModel>
  </diagram>
</mxfile>
